<?xml version="1.0" standalone="no"?>
<!DOCTYPE svg PUBLIC "-//W3C//DTD SVG 20010904//EN"
 "http://www.w3.org/TR/2001/REC-SVG-20010904/DTD/svg10.dtd">
<svg version="1.0" xmlns="http://www.w3.org/2000/svg"
 width="2051.000000pt" height="2051.000000pt" viewBox="0 0 2051.000000 2051.000000"
 preserveAspectRatio="xMidYMid meet">
<metadata>
Created by potrace 1.14, written by Peter Selinger 2001-2017
</metadata>
<g transform="translate(0.000000,2051.000000) scale(0.100000,-0.100000)"
fill="#000000" stroke="none">
<path d="M14501 15694 c0 -11 3 -14 6 -6 3 7 2 16 -1 19 -3 4 -6 -2 -5 -13z"/>
<path d="M13395 15019 c-4 -6 -5 -27 -2 -47 3 -20 3 -29 0 -19 -2 10 -10 16
-17 14 -7 -3 -435 -247 -952 -543 -516 -296 -959 -549 -983 -562 -35 -21 -45
-22 -52 -11 -5 8 -9 19 -9 24 0 6 -12 16 -27 22 -16 7 -50 25 -78 41 -27 16
-95 55 -150 87 -127 74 -341 197 -423 242 -34 19 -72 33 -85 31 l-22 -3 -5
-379 c-4 -317 -7 -380 -19 -384 -8 -3 51 -26 131 -52 348 -114 613 -291 710
-475 48 -92 65 -182 51 -268 -19 -112 -82 -242 -166 -344 -21 -25 -36 -47 -34
-49 2 -2 28 4 58 15 47 16 362 91 439 104 l25 4 -25 2 c-14 0 -74 -11 -135
-25 -60 -14 -128 -27 -149 -29 l-39 -4 8 67 c4 37 8 85 10 107 2 22 8 54 13
70 9 26 10 19 11 -44 1 -64 3 -72 18 -67 15 6 129 71 828 474 348 200 506 288
532 296 20 6 21 4 13 -29 -4 -19 -6 -35 -3 -35 3 0 1 -6 -4 -12 -11 -14 -11
-16 -14 -93 -1 -27 -8 -58 -16 -67 -10 -11 -12 -24 -7 -40 12 -36 13 -49 3
-42 -5 3 -6 10 -3 16 4 6 3 8 -3 5 -6 -4 -8 -24 -6 -46 2 -22 -1 -42 -7 -46
-5 -3 -10 -13 -10 -22 0 -12 3 -13 14 -4 22 18 28 -13 7 -36 -15 -16 -16 -21
-4 -32 8 -7 11 -20 9 -29 -3 -9 -2 -40 2 -68 5 -28 5 -61 0 -74 -7 -18 -5 -21
7 -16 13 5 14 2 4 -17 -14 -26 -15 -21 6 -54 10 -14 12 -22 4 -18 -8 5 -10 4
-5 -3 4 -7 14 -12 22 -12 16 0 19 -16 4 -25 -5 -3 -10 -13 -10 -21 0 -8 5 -12
10 -9 6 4 10 -5 10 -19 0 -14 -5 -26 -12 -26 -6 0 -9 -3 -6 -6 4 -3 17 0 30 6
19 10 21 10 11 0 -10 -11 -9 -16 5 -26 30 -22 -9 -27 -69 -10 -94 28 -97 16
-4 -14 50 -16 91 -30 92 -30 1 0 0 6 -2 13 -6 14 126 102 169 113 27 6 29 5
24 -20 l-5 -26 43 25 c23 14 45 25 47 25 5 0 19 -50 22 -75 0 -5 6 -35 12 -65
6 -30 14 -68 16 -85 2 -16 8 -38 12 -49 8 -17 7 -17 -26 -1 -42 21 -30 10 41
-40 207 -144 333 -348 347 -560 13 -205 -118 -443 -341 -621 -207 -164 -249
-191 -906 -572 -91 -52 -205 -119 -255 -147 -49 -29 -133 -77 -185 -107 -52
-30 -194 -112 -315 -183 -121 -70 -241 -140 -266 -154 -296 -167 -499 -289
-502 -301 -2 -8 -7 4 -11 27 -7 41 -11 45 -99 95 -51 29 -100 58 -109 63 -9 6
-185 106 -390 224 -205 118 -397 230 -427 249 -30 19 -82 49 -115 67 -34 17
-117 65 -186 105 -69 40 -213 124 -320 185 -107 62 -235 135 -285 164 -171
100 -760 438 -775 444 -8 4 -55 32 -104 62 -49 30 -90 55 -92 55 -2 0 -47 26
-101 58 -135 80 -261 152 -267 152 -3 0 -36 19 -73 43 -38 24 -120 73 -183
109 -63 36 -187 107 -275 158 -88 52 -189 110 -225 130 -36 20 -83 48 -105 63
-47 32 -90 35 -105 8 -6 -13 -10 -154 -10 -390 0 -314 -2 -371 -14 -371 -8 0
-45 -20 -82 -45 -36 -25 -69 -45 -71 -45 -2 0 -19 -10 -38 -23 l-34 -23 72
-18 c151 -38 407 -129 526 -188 170 -83 319 -185 421 -288 145 -146 203 -272
202 -440 0 -110 -22 -190 -83 -312 -21 -42 -35 -79 -30 -82 7 -5 185 -49 391
-96 105 -25 409 -98 685 -165 99 -24 333 -80 520 -125 187 -45 462 -110 610
-146 149 -36 295 -70 325 -75 70 -12 110 -28 110 -43 -1 -6 -121 -80 -268
-164 -147 -84 -330 -189 -407 -234 -423 -245 -410 -238 -417 -219 -4 12 -36
25 -110 44 -132 34 -891 226 -1635 414 -528 133 -584 145 -595 131 -7 -9 -110
-73 -228 -141 -118 -68 -273 -158 -343 -200 l-129 -75 119 -70 c376 -221 1466
-853 1511 -876 17 -9 32 -23 32 -31 0 -7 -55 -45 -122 -83 -68 -39 -238 -136
-378 -217 -140 -81 -295 -170 -345 -198 -49 -27 -102 -58 -116 -69 l-27 -18
-6 33 c-5 27 -17 38 -84 76 -42 25 -113 66 -157 91 -44 26 -210 123 -370 215
-159 92 -346 200 -415 240 -69 40 -215 124 -325 188 -110 63 -238 137 -285
165 -47 27 -227 131 -400 232 -173 100 -319 185 -325 190 -5 4 -118 70 -250
145 -132 76 -337 194 -455 263 -118 68 -240 138 -270 155 -30 17 -120 70 -200
117 -80 48 -176 104 -215 125 -38 21 -77 43 -85 50 -18 14 -86 53 -235 135
-33 18 -74 41 -92 52 -25 15 -37 17 -53 8 -20 -10 -20 -19 -21 -373 -1 -332
-6 -427 -19 -417 -9 6 -49 -11 -102 -44 -120 -73 -166 -106 -201 -145 -80 -89
-38 -147 241 -333 l92 -61 0 -335 c0 -185 2 -333 4 -331 3 3 6 49 7 104 1 97
10 135 29 135 5 0 6 -8 3 -17 -6 -17 -6 -17 10 -1 20 19 22 54 5 62 -7 3 3 3
22 0 l35 -6 -30 28 c-27 25 -28 29 -11 32 10 2 21 0 25 -5 9 -12 31 -15 31 -4
0 5 -5 11 -10 13 -6 2 -12 12 -14 23 -3 17 2 21 25 23 18 1 29 -3 29 -10 0
-10 2 -10 9 1 6 9 11 10 15 3 4 -6 13 -9 21 -5 11 4 14 0 9 -13 -6 -16 -3 -15
13 4 16 17 22 19 26 9 3 -8 15 -17 26 -20 12 -3 19 -1 15 4 -3 5 -1 9 5 9 5 0
12 -6 14 -12 4 -10 6 -9 6 1 1 9 8 6 21 -9 11 -13 20 -20 20 -15 0 4 6 3 13
-2 6 -6 23 -13 37 -16 14 -4 34 -20 45 -36 11 -17 22 -26 26 -20 7 12 59 -6
59 -21 0 -5 5 -10 11 -10 5 0 7 5 3 11 -4 7 1 7 16 -1 15 -8 20 -8 16 -1 -10
16 10 13 28 -4 8 -8 19 -15 25 -15 5 0 16 -6 23 -13 16 -15 66 -39 92 -44 11
-2 27 -10 35 -17 9 -8 27 -17 41 -21 14 -4 36 -15 50 -24 63 -41 165 -82 176
-71 9 9 42 -8 329 -175 94 -54 229 -132 300 -173 72 -41 198 -114 280 -162 83
-48 251 -146 375 -218 124 -71 367 -212 540 -312 173 -101 430 -249 570 -330
140 -81 347 -201 460 -267 113 -65 230 -133 260 -150 l55 -30 251 146 c138 80
364 211 502 291 l252 145 0 568 c0 327 4 567 9 567 5 0 150 -36 322 -80 173
-44 476 -121 675 -172 l361 -91 534 308 c294 170 540 314 548 321 11 10 13 87
12 424 l-2 412 68 -37 c37 -21 120 -68 183 -105 408 -238 473 -273 493 -261
10 7 134 79 275 160 142 81 498 288 792 458 294 170 639 370 765 443 243 141
387 233 520 333 86 65 256 230 295 287 14 21 1 11 -32 -25 -51 -55 -56 -58
-71 -43 -15 15 -15 16 4 21 12 3 18 10 14 16 -9 15 -35 14 -35 -1 0 -9 -3 -8
-9 2 -6 8 -7 18 -5 22 3 4 1 8 -4 8 -5 0 -9 7 -9 15 0 8 4 15 9 15 5 0 6 5 3
11 -13 20 -11 139 3 144 8 3 11 -3 8 -19 -4 -20 -1 -23 17 -18 19 5 20 7 4 10
-18 4 -18 4 0 19 10 8 12 12 5 8 -7 -4 -16 4 -22 20 -13 34 -13 35 5 35 8 0
15 7 15 15 0 8 -4 15 -10 15 -5 0 -10 -5 -10 -12 0 -16 -10 -4 -14 18 -3 11
-8 30 -13 44 -9 23 -9 59 0 104 2 11 13 27 25 37 15 12 18 19 10 22 -10 3 -8
10 5 25 18 20 18 20 -2 15 -11 -3 -19 -9 -16 -13 2 -4 -8 -18 -23 -31 -20 -18
-22 -19 -9 -3 9 11 17 25 17 30 0 6 9 20 20 32 12 12 16 22 10 22 -5 0 -10 7
-10 15 0 8 6 15 13 15 8 0 7 4 -3 10 -13 8 -12 10 4 10 13 0 17 5 13 20 -3 11
-1 18 4 14 13 -8 11 30 -3 44 -9 9 -9 12 0 12 16 0 15 27 0 33 -10 4 -10 6 0
6 6 1 12 6 12 12 0 8 -5 7 -15 -1 -9 -7 -19 -10 -22 -6 -4 4 -1 12 7 17 13 9
13 10 0 6 -24 -6 -24 -64 0 -77 11 -6 20 -16 20 -23 0 -8 -4 -7 -10 3 -14 22
-19 10 -24 -60 -3 -36 -5 -67 -6 -70 0 -3 -6 6 -13 20 -9 17 -11 37 -5 63 5
21 6 42 3 48 -4 5 -2 9 2 9 5 0 7 17 5 38 -3 30 1 42 23 62 18 17 24 20 19 7
-9 -24 9 -21 24 4 11 17 11 20 0 13 -10 -6 -10 -4 1 9 7 9 17 14 22 11 5 -3 9
0 9 5 0 6 4 11 10 11 5 0 7 -6 4 -14 -3 -7 2 -16 10 -19 9 -4 16 -13 16 -21 0
-23 71 -18 98 7 21 20 22 20 24 1 1 -10 6 67 13 171 10 171 13 187 24 158 7
-18 20 -33 29 -33 16 0 118 -57 208 -116 28 -19 54 -34 57 -34 4 0 165 -90
358 -200 193 -110 357 -200 365 -200 8 0 301 166 651 369 1189 688 2407 1392
2585 1494 l176 102 1 674 2 673 -58 -32 c-87 -49 -104 -59 -288 -167 -93 -55
-289 -168 -435 -252 -146 -84 -290 -168 -320 -186 -30 -18 -98 -58 -150 -87
-52 -30 -156 -90 -230 -133 -74 -43 -180 -104 -235 -135 -55 -32 -150 -87
-212 -123 -62 -36 -132 -77 -155 -90 -36 -20 -172 -99 -311 -180 -18 -11 -106
-62 -197 -114 -418 -242 -622 -361 -710 -413 l-95 -57 -9 27 c-4 15 -20 34
-35 41 -14 8 -61 35 -104 61 -43 27 -80 48 -82 48 -2 0 -32 17 -67 39 -35 21
-140 84 -233 139 l-171 100 -32 159 c-46 227 -134 656 -182 883 -23 107 -48
229 -56 270 -8 41 -31 149 -50 240 -44 209 -61 286 -79 380 -9 41 -31 149 -51
240 -19 91 -44 212 -55 270 -27 135 -80 370 -85 370 -1 0 -6 -5 -9 -11z m5
-4424 c0 -8 -4 -15 -10 -15 -5 0 -10 7 -10 15 0 8 5 15 10 15 6 0 10 -7 10
-15z m-10920 -2796 c0 -6 -4 -7 -10 -4 -5 3 -10 11 -10 16 0 6 5 7 10 4 6 -3
10 -11 10 -16z"/>
<path d="M12820 13089 c0 -5 5 -7 10 -4 6 3 10 8 10 11 0 2 -4 4 -10 4 -5 0
-10 -5 -10 -11z"/>
<path d="M15254 13024 c-18 -14 -18 -15 4 -4 12 6 22 13 22 15 0 8 -5 6 -26
-11z"/>
<path d="M15184 12984 c-18 -14 -18 -15 4 -4 12 6 22 13 22 15 0 8 -5 6 -26
-11z"/>
<path d="M15114 12944 c-18 -14 -18 -15 4 -4 12 6 22 13 22 15 0 8 -5 6 -26
-11z"/>
<path d="M9535 12766 c-139 -34 -334 -134 -820 -416 -110 -64 -238 -138 -284
-165 -83 -48 -84 -49 -61 -64 48 -33 893 -521 901 -521 5 0 170 92 367 204
196 112 393 223 437 246 121 64 183 106 248 169 88 83 121 135 121 191 0 97
-114 229 -254 292 -186 85 -462 112 -655 64z"/>
<path d="M12028 12493 c45 -2 119 -2 165 0 45 1 8 3 -83 3 -91 0 -128 -2 -82
-3z"/>
<path d="M11820 12479 c-23 -5 -10 -5 35 -2 39 3 72 7 74 9 7 7 -72 2 -109 -7z"/>
<path d="M12388 12483 c7 -3 16 -2 19 1 4 3 -2 6 -13 5 -11 0 -14 -3 -6 -6z"/>
<path d="M11375 11834 c-160 -27 -402 -123 -590 -232 -27 -16 -81 -47 -120
-69 -38 -22 -142 -82 -230 -133 -88 -51 -215 -125 -283 -164 -120 -69 -123
-71 -101 -86 12 -8 242 -143 510 -298 l489 -284 347 200 c192 109 393 223 448
252 340 181 502 382 426 528 -38 72 -156 169 -264 217 -168 74 -435 103 -632
69z"/>
<path d="M5393 10345 c-168 -30 -304 -95 -845 -405 -285 -162 -374 -218 -365
-226 7 -7 192 -116 412 -244 220 -128 457 -266 527 -306 l126 -74 262 150
c144 83 263 150 265 150 2 0 43 23 92 51 48 28 97 55 108 61 71 33 259 165
315 221 55 55 73 88 83 154 29 178 -145 354 -426 434 -162 45 -407 61 -554 34z"/>
<path d="M13374 10329 c-6 -10 -6 -60 -1 -160 1 -9 7 -15 14 -12 17 6 17 20 1
26 -10 4 -9 6 1 6 11 1 11 4 0 18 -16 19 -16 23 3 34 11 7 10 11 -2 19 -13 9
-13 10 0 10 13 0 13 1 0 10 -13 9 -13 10 0 10 13 0 13 2 1 9 -8 5 -11 16 -8
25 7 18 2 21 -9 5z"/>
<path d="M13379 9952 c-5 -57 -1 -82 11 -82 5 0 8 18 7 41 -1 22 4 43 9 47 7
5 5 13 -6 25 -17 18 -18 16 -21 -31z"/>
<path d="M3485 7571 c8 -14 105 -72 105 -63 0 4 -25 22 -55 40 -31 17 -53 27
-50 23z"/>
</g>
</svg>
